<?xml version="1.0" encoding="UTF-8"?>
<svg width="290px" height="326px" viewBox="0 0 290 326" version="1.1" xmlns="http://www.w3.org/2000/svg" xmlns:xlink="http://www.w3.org/1999/xlink">
    <!-- Generator: Sketch 55.1 (78136) - https://sketchapp.com -->
    <title>Group 3</title>
    <desc>Created with Sketch.</desc>
    <defs>
        <filter x="-61.0%" y="-42.8%" width="221.9%" height="185.6%" filterUnits="objectBoundingBox" id="filter-1">
            <feGaussianBlur stdDeviation="21" in="SourceGraphic"></feGaussianBlur>
        </filter>
        <filter x="-83.4%" y="-39.2%" width="266.8%" height="178.4%" filterUnits="objectBoundingBox" id="filter-2">
            <feGaussianBlur stdDeviation="21" in="SourceGraphic"></feGaussianBlur>
        </filter>
        <filter x="-35.6%" y="-82.0%" width="171.2%" height="264.0%" filterUnits="objectBoundingBox" id="filter-3">
            <feGaussianBlur stdDeviation="21" in="SourceGraphic"></feGaussianBlur>
        </filter>
    </defs>
    <g id="Page-1" stroke="none" stroke-width="1" fill="none" fill-rule="evenodd">
        <g id="Group-3" transform="translate(1.000000, 1.000000)" stroke="#979797">
            <g id="Group" transform="translate(54.000000, 83.000000)" fill="#F8E71C" opacity="0.579357329">
                <polygon id="Path-3" filter="url(#filter-1)" points="104.171359 194.718208 104.171359 77.4927746 0 45.9320809 0 163.721098"></polygon>
                <polygon id="Path-4" filter="url(#filter-2)" points="180.318357 31.8424855 104.171359 77.4927746 104.171359 194.718208 180.318357 149.631503"></polygon>
                <polygon id="Path-5" filter="url(#filter-3)" points="0 45.9320809 75.8639241 0 180.318357 31.8424855 104.171359 77.4927746"></polygon>
            </g>
            <g id="Group" opacity="0.5" fill="#F4F4F4">
                <polygon id="Path-3" points="166.119122 311.549133 166.119122 123.988439 0 73.4913295 0 261.953757"></polygon>
                <polygon id="Path-4" points="287.548589 50.9479769 166.119122 123.988439 166.119122 311.549133 287.548589 239.410405"></polygon>
                <polygon id="Path-5" points="0 73.4913295 120.978056 0 287.548589 50.9479769 166.119122 123.988439"></polygon>
            </g>
        </g>
    </g>
</svg>