<?xml version="1.0" encoding="UTF-8"?>
<svg width="126px" height="109px" viewBox="0 0 126 109" version="1.1" xmlns="http://www.w3.org/2000/svg" xmlns:xlink="http://www.w3.org/1999/xlink">
    <!-- Generator: Sketch 55 (78076) - https://sketchapp.com -->
    <title>Stroke 1heart</title>
    <desc>Created with Sketch.</desc>
    <g id="Page-1" stroke="none" stroke-width="1" fill="none" fill-rule="evenodd">
        <path d="M62.5754275,17.501564 C62.8082775,17.8306362 63.3061956,17.8133923 63.5207398,17.4728241 C69.377868,8.15677647 77.2061664,2.23491432 88.0080612,0.478904718 C100.95613,-1.626295 113.181484,4.15905249 119.9561,15.306552 C129.711635,31.3578018 126.812726,46.7178563 117.27979,61.5742436 C106.359274,78.5940289 90.869626,91.1361334 74.4654199,102.713295 C73.2813998,103.548908 72.0724839,104.352908 70.8503877,105.134634 C62.7929006,110.289858 62.7731303,110.312132 54.9719246,105.059192 C38.1210566,93.709794 22.3817177,81.143979 10.6030246,64.4935017 C3.88259418,54.9935186 -0.583292228,44.6909729 0.06180466,32.7143264 C1.04885416,14.4019628 16.2155872,-0.598124082 33.7115521,0.018347373 C44.5881346,0.401306913 53.3002376,5.20446737 59.8610414,13.7251375 C60.7448461,14.8725791 61.5620177,16.0688786 62.5754275,17.501564 Z" id="Stroke-1" fill="#E52B41"></path>
    </g>
</svg>