<svg id="Laag_1" data-name="Laag 1" xmlns="http://www.w3.org/2000/svg" xmlns:xlink="http://www.w3.org/1999/xlink" viewBox="0 0 528.08 547"><defs><style>.cls-1,.cls-21,.cls-5{fill:none;}.cls-2,.cls-9{fill:#fff;}.cls-3{fill:#1d1d1b;}.cls-4{clip-path:url(#clip-path);}.cls-16,.cls-21,.cls-5,.cls-9{stroke:#fff;stroke-miterlimit:10;}.cls-6{clip-path:url(#clip-path-2);}.cls-7{clip-path:url(#clip-path-4);}.cls-8{clip-path:url(#clip-path-5);}.cls-16,.cls-9{stroke-width:2px;}.cls-10{clip-path:url(#clip-path-6);}.cls-11{clip-path:url(#clip-path-7);}.cls-12{clip-path:url(#clip-path-8);}.cls-13{clip-path:url(#clip-path-10);}.cls-14{clip-path:url(#clip-path-12);}.cls-15{clip-path:url(#clip-path-13);}.cls-17{clip-path:url(#clip-path-14);}.cls-18{clip-path:url(#clip-path-16);}.cls-19{clip-path:url(#clip-path-18);}.cls-20{clip-path:url(#clip-path-20);}.cls-21{stroke-width:4px;}</style><clipPath id="clip-path" transform="translate(-12.91 -11.28)"><rect class="cls-1" x="12.91" y="11.28" width="528" height="547"/></clipPath><clipPath id="clip-path-2" transform="translate(-12.91 -11.28)"><rect class="cls-1" x="517.41" y="194.78" width="17" height="18" transform="translate(80.38 549.61) rotate(-59)"/></clipPath><clipPath id="clip-path-4" transform="translate(-12.91 -11.28)"><rect class="cls-2" x="517.41" y="194.78" width="17" height="18" transform="translate(80.38 549.61) rotate(-59)"/></clipPath><clipPath id="clip-path-5" transform="translate(-12.91 -11.28)"><rect class="cls-2" x="12.91" y="11.28" width="528" height="547"/></clipPath><clipPath id="clip-path-6" transform="translate(-12.91 -11.28)"><rect class="cls-3" x="447.41" y="468.78" width="18" height="17" transform="translate(-65.96 881.29) rotate(-84)"/></clipPath><clipPath id="clip-path-7" transform="translate(-12.91 -11.28)"><rect class="cls-3" x="12.91" y="11.28" width="528" height="547"/></clipPath><clipPath id="clip-path-8" transform="translate(-12.91 -11.28)"><rect class="cls-2" x="447.41" y="468.78" width="18" height="17" transform="translate(-65.96 881.29) rotate(-84)"/></clipPath><clipPath id="clip-path-10" transform="translate(-12.91 -11.28)"><rect class="cls-1" x="19.91" y="195.28" width="17" height="17" transform="translate(-89.42 35.11) rotate(-27)"/></clipPath><clipPath id="clip-path-12" transform="translate(-12.91 -11.28)"><rect x="19.91" y="195.28" width="17" height="17" transform="translate(-89.42 35.11) rotate(-27)"/></clipPath><clipPath id="clip-path-13" transform="translate(-12.91 -11.28)"><rect x="12.91" y="11.28" width="528" height="547"/></clipPath><clipPath id="clip-path-14" transform="translate(-12.91 -11.28)"><rect class="cls-1" x="90.91" y="468.28" width="17" height="18" transform="translate(-33.05 8.1) rotate(-4)"/></clipPath><clipPath id="clip-path-16" transform="translate(-12.91 -11.28)"><rect class="cls-2" x="90.91" y="468.28" width="17" height="18" transform="translate(-33.05 8.1) rotate(-4)"/></clipPath><clipPath id="clip-path-18" transform="translate(-12.91 -11.28)"><rect x="267.91" y="15.28" width="17" height="17"/></clipPath><clipPath id="clip-path-20" transform="translate(-12.91 -11.28)"><rect class="cls-2" x="267.91" y="15.28" width="17" height="17"/></clipPath></defs><title>SVGweb</title><g class="cls-4"><circle class="cls-5" cx="264" cy="275" r="262"/></g><g class="cls-6"><g class="cls-4"><rect x="517.41" y="194.78" width="17" height="18" transform="translate(67.47 538.34) rotate(-59)"/></g></g><rect class="cls-2" x="517.41" y="194.78" width="17" height="18" transform="translate(67.47 538.34) rotate(-59)"/><g class="cls-7"><rect class="cls-2" width="528" height="547"/><g class="cls-8"><rect class="cls-9" x="517.41" y="194.78" width="17" height="18" transform="translate(67.47 538.34) rotate(-59)"/></g></g><rect class="cls-3" x="447.41" y="468.78" width="18" height="17" transform="translate(-78.87 870.02) rotate(-84)"/><g class="cls-10"><rect class="cls-3" width="528" height="547"/><g class="cls-11"><rect class="cls-3" x="447.41" y="468.78" width="18" height="17" transform="translate(-78.87 870.02) rotate(-84)"/></g></g><rect class="cls-2" x="447.41" y="468.78" width="18" height="17" transform="translate(-78.87 870.02) rotate(-84)"/><g class="cls-12"><rect class="cls-2" width="528" height="547"/><g class="cls-8"><rect class="cls-9" x="447.41" y="468.78" width="18" height="17" transform="translate(-78.87 870.02) rotate(-84)"/></g></g><g class="cls-13"><g class="cls-4"><rect x="19.91" y="195.28" width="17" height="17" transform="translate(-102.32 23.83) rotate(-27)"/></g></g><rect x="19.91" y="195.28" width="17" height="17" transform="translate(-102.32 23.83) rotate(-27)"/><g class="cls-14"><rect width="528" height="547"/><g class="cls-15"><rect class="cls-16" x="19.91" y="195.28" width="17" height="17" transform="translate(-102.32 23.83) rotate(-27)"/></g></g><g class="cls-17"><g class="cls-4"><rect x="90.91" y="468.28" width="17" height="18" transform="translate(-45.96 -3.18) rotate(-4)"/></g></g><rect class="cls-2" x="90.91" y="468.28" width="17" height="18" transform="translate(-45.96 -3.18) rotate(-4)"/><g class="cls-18"><rect class="cls-2" width="528" height="547"/><g class="cls-8"><rect class="cls-9" x="90.91" y="468.28" width="17" height="18" transform="translate(-45.96 -3.18) rotate(-4)"/></g></g><rect x="255" y="4" width="17" height="17"/><g class="cls-19"><rect width="528" height="547"/><g class="cls-15"><rect x="255" y="4" width="17" height="17"/></g></g><rect class="cls-2" x="255" y="4" width="17" height="17"/><g class="cls-20"><rect class="cls-2" width="528" height="547"/><g class="cls-8"><rect class="cls-9" x="255" y="4" width="17" height="17"/></g></g><path class="cls-21" d="M284.91,24.4s169.25-.62,241,174.15" transform="translate(-12.91 -11.28)"/><path class="cls-21" d="M525.91,204.55s57.77,146.34-69.5,272.73c0,0-164.65,160.46-358.84,0" transform="translate(-12.91 -11.28)"/></svg>