<svg id="Laag_1" data-name="Laag 1" xmlns="http://www.w3.org/2000/svg" xmlns:xlink="http://www.w3.org/1999/xlink" viewBox="0 0 525 534.5"><defs><style>.cls-1,.cls-3,.cls-5{fill:none;}.cls-2{clip-path:url(#clip-path);}.cls-3,.cls-5{stroke:#fff;stroke-miterlimit:10;}.cls-4{clip-path:url(#clip-path-2);}.cls-5{stroke-width:2px;}.cls-6{clip-path:url(#clip-path-6);}.cls-7{clip-path:url(#clip-path-10);}.cls-8{clip-path:url(#clip-path-14);}.cls-9{clip-path:url(#clip-path-18);}.cls-10{fill:#fff;}</style><clipPath id="clip-path" transform="translate(-14.41 -14.28)"><rect class="cls-1" x="12.91" y="11.28" width="528" height="547"/></clipPath><clipPath id="clip-path-2" transform="translate(-14.41 -14.28)"><rect class="cls-1" x="517.41" y="194.78" width="17" height="18" transform="translate(80.38 549.61) rotate(-59)"/></clipPath><clipPath id="clip-path-6" transform="translate(-14.41 -14.28)"><rect class="cls-1" x="447.41" y="468.78" width="18" height="17" transform="translate(-65.96 881.29) rotate(-84)"/></clipPath><clipPath id="clip-path-10" transform="translate(-14.41 -14.28)"><rect class="cls-1" x="19.91" y="195.28" width="17" height="17" transform="translate(-89.42 35.11) rotate(-27)"/></clipPath><clipPath id="clip-path-14" transform="translate(-14.41 -14.28)"><rect class="cls-1" x="90.91" y="468.28" width="17" height="18" transform="translate(-33.05 8.1) rotate(-4)"/></clipPath><clipPath id="clip-path-18" transform="translate(-14.41 -14.28)"><rect class="cls-1" x="267.91" y="15.28" width="17" height="17"/></clipPath></defs><title>Naamloos-1</title><g class="cls-2"><circle class="cls-3" cx="262.5" cy="272" r="262"/></g><g class="cls-4"><g class="cls-2"><rect x="517.41" y="194.78" width="17" height="18" transform="translate(65.97 535.34) rotate(-59)"/></g></g><g class="cls-4"><g class="cls-2"><rect class="cls-5" x="517.41" y="194.78" width="17" height="18" transform="translate(65.97 535.34) rotate(-59)"/></g></g><g class="cls-6"><g class="cls-2"><rect x="447.41" y="468.78" width="18" height="17" transform="translate(-80.37 867.02) rotate(-84)"/></g></g><g class="cls-6"><g class="cls-2"><rect class="cls-5" x="447.41" y="468.78" width="18" height="17" transform="translate(-80.37 867.02) rotate(-84)"/></g></g><g class="cls-7"><g class="cls-2"><rect x="19.91" y="195.28" width="17" height="17" transform="translate(-103.82 20.83) rotate(-27)"/></g></g><g class="cls-7"><g class="cls-2"><rect class="cls-5" x="19.91" y="195.28" width="17" height="17" transform="translate(-103.82 20.83) rotate(-27)"/></g></g><g class="cls-8"><g class="cls-2"><rect x="90.91" y="468.28" width="17" height="18" transform="translate(-47.46 -6.18) rotate(-4)"/></g></g><g class="cls-8"><g class="cls-2"><rect class="cls-5" x="90.91" y="468.28" width="17" height="18" transform="translate(-47.46 -6.18) rotate(-4)"/></g></g><g class="cls-9"><g class="cls-2"><rect class="cls-10" x="253.5" y="1" width="17" height="17"/></g></g><g class="cls-9"><g class="cls-2"><rect class="cls-5" x="253.5" y="1" width="17" height="17"/></g></g></svg>