<?xml version="1.0" encoding="UTF-8"?>
<svg width="543px" height="534px" viewBox="0 0 543 534" version="1.1" xmlns="http://www.w3.org/2000/svg" xmlns:xlink="http://www.w3.org/1999/xlink">
    <!-- Generator: Sketch 55.1 (78136) - https://sketchapp.com -->
    <title>Group 2</title>
    <desc>Created with Sketch.</desc>
    <g id="Page-1" stroke="none" stroke-width="1" fill="none" fill-rule="evenodd">
        <g id="Group-2" stroke="#FFFFFF">
            <circle id="Oval" cx="271" cy="271" r="262"></circle>
            <rect id="Rectangle" fill="#000000" transform="translate(484.000000, 119.500000) rotate(10.000000) translate(-484.000000, -119.500000) " x="475.5" y="111.5" width="17" height="16"></rect>
            <rect id="Rectangle-Copy" fill="#000000" transform="translate(530.000000, 309.500000) rotate(53.000000) translate(-530.000000, -309.500000) " x="521.5" y="301.5" width="17" height="16"></rect>
            <rect id="Rectangle" fill="#FFFFFF" transform="translate(418.500000, 488.000000) rotate(9.000000) translate(-418.500000, -488.000000) " x="410.5" y="479.5" width="16" height="17"></rect>
            <rect id="Rectangle" fill="#000000" transform="translate(57.500000, 119.500000) scale(-1, 1) rotate(9.000000) translate(-57.500000, -119.500000) " x="49.5" y="111.5" width="16" height="16"></rect>
            <rect id="Rectangle-Copy-2" fill="#000000" transform="translate(12.500000, 309.500000) scale(-1, 1) rotate(53.000000) translate(-12.500000, -309.500000) " x="4.5" y="301.5" width="16" height="16"></rect>
            <rect id="Rectangle" fill="#000000" transform="translate(124.500000, 488.000000) scale(-1, 1) rotate(9.000000) translate(-124.500000, -488.000000) " x="116.5" y="479.5" width="16" height="17"></rect>
            <rect id="Rectangle" fill="#000000" x="262.5" y="0.5" width="16" height="16"></rect>
        </g>
    </g>
</svg>