<?xml version="1.0" encoding="UTF-8"?>
<svg width="525px" height="534px" viewBox="0 0 525 534" version="1.1" xmlns="http://www.w3.org/2000/svg" xmlns:xlink="http://www.w3.org/1999/xlink">
    <!-- Generator: Sketch 55.1 (78136) - https://sketchapp.com -->
    <title>Group</title>
    <desc>Created with Sketch.</desc>
    <g id="Page-1" stroke="none" stroke-width="1" fill="none" fill-rule="evenodd">
        <g id="Group">
            <g id="step_1" transform="translate(0.000000, 9.000000)" stroke="#FFFFFF">
                <path d="M510.7,178.61 C475.87,74.8 377.8,0 262.25,0" id="Path" stroke-width="5"></path>
                <path d="M262.25,0 C117.56,0 0.25,117.3 0.25,262 C0.25,406.7 117.56,524 262.25,524 C406.94,524 524.250149,406.7 524.250149,262 C524.280213,233.652868 519.70391,205.489182 510.7,178.61" id="Path" stroke-width="0.5"></path>
            </g>
            <rect id="Rectangle" fill="#000000" fill-rule="nonzero" transform="translate(441.343995, 462.004749) rotate(-84.000000) translate(-441.343995, -462.004749) " x="432.343995" y="453.504749" width="18" height="17"></rect>
            <rect id="Rectangle" fill="#000000" fill-rule="nonzero" transform="translate(13.341236, 188.505175) rotate(-27.000000) translate(-13.341236, -188.505175) " x="4.84123602" y="180.005175" width="17" height="17"></rect>
            <rect id="Rectangle" fill="#000000" fill-rule="nonzero" transform="translate(84.347651, 461.996068) rotate(-4.000000) translate(-84.347651, -461.996068) " x="75.8476507" y="452.996068" width="17" height="18"></rect>
            <rect id="Rectangle" fill="#FFFFFF" fill-rule="nonzero" x="253.25" y="0" width="17" height="17"></rect>
            <rect id="Rectangle" fill="#000000" fill-rule="nonzero" transform="translate(510.847018, 188.498757) rotate(-59.000000) translate(-510.847018, -188.498757) " x="502.347018" y="179.498757" width="17" height="18"></rect>
            <rect id="Rectangle" stroke="#FFFFFF" stroke-width="2" transform="translate(510.847018, 188.498757) rotate(-59.000000) translate(-510.847018, -188.498757) " x="502.347018" y="179.498757" width="17" height="18"></rect>
            <rect id="Rectangle" stroke="#FFFFFF" stroke-width="2" transform="translate(441.343995, 462.004749) rotate(-84.000000) translate(-441.343995, -462.004749) " x="432.343995" y="453.504749" width="18" height="17"></rect>
            <rect id="Rectangle" stroke="#FFFFFF" stroke-width="2" transform="translate(13.341236, 188.505175) rotate(-27.000000) translate(-13.341236, -188.505175) " x="4.84123602" y="180.005175" width="17" height="17"></rect>
            <rect id="Rectangle" stroke="#FFFFFF" stroke-width="2" transform="translate(84.347651, 461.996068) rotate(-4.000000) translate(-84.347651, -461.996068) " x="75.8476507" y="452.996068" width="17" height="18"></rect>
        </g>
    </g>
</svg>