<?xml version="1.0" encoding="UTF-8"?>
<svg width="136px" height="119px" viewBox="0 0 136 119" version="1.1" xmlns="http://www.w3.org/2000/svg" xmlns:xlink="http://www.w3.org/1999/xlink">
    <!-- Generator: Sketch 55 (78076) - https://sketchapp.com -->
    <title>Stroke 1heart</title>
    <desc>Created with Sketch.</desc>
    <g id="Page-1" stroke="none" stroke-width="1" fill="none" fill-rule="evenodd">
        <path d="M67.5754275,22.501564 C67.8082775,22.8306362 68.3061956,22.8133923 68.5207398,22.4728241 C74.377868,13.1567765 82.2061664,7.23491432 93.0080612,5.47890472 C105.95613,3.373705 118.181484,9.15905249 124.9561,20.306552 C134.711635,36.3578018 131.812726,51.7178563 122.27979,66.5742436 C111.359274,83.5940289 95.869626,96.1361334 79.4654199,107.713295 C78.2813998,108.548908 77.0724839,109.352908 75.8503877,110.134634 C67.7929006,115.289858 67.7731303,115.312132 59.9719246,110.059192 C43.1210566,98.709794 27.3817177,86.143979 15.6030246,69.4935017 C8.88259418,59.9935186 4.41670777,49.6909729 5.06180466,37.7143264 C6.04885416,19.4019628 21.2155872,4.40187592 38.7115521,5.01834737 C49.5881346,5.40130691 58.3002376,10.2044674 64.8610414,18.7251375 C65.7448461,19.8725791 66.5620177,21.0688786 67.5754275,22.501564 Z" id="Stroke-1" stroke="#E52B41" stroke-width="10"></path>
    </g>
</svg>